<?xml version="1.0" standalone="no"?>
<!DOCTYPE svg PUBLIC "-//W3C//DTD SVG 20010904//EN"
 "http://www.w3.org/TR/2001/REC-SVG-20010904/DTD/svg10.dtd">
<svg version="1.0" xmlns="http://www.w3.org/2000/svg"
 width="300.000000pt" height="305.000000pt" viewBox="0 0 300.000000 305.000000"
 preserveAspectRatio="xMidYMid meet">
<metadata>
Created by potrace 1.10, written by Peter Selinger 2001-2011
</metadata>
<g transform="translate(0.000000,305.000000) scale(0.100000,-0.100000)"
fill="#000000" stroke="none">
<path d="M906 2991 c-27 -30 -37 -81 -31 -158 9 -99 17 -98 89 21 10 16 30 42
44 57 22 25 31 28 59 23 21 -4 33 -2 33 5 0 6 -7 11 -15 11 -8 0 -41 14 -73
30 -69 35 -83 37 -106 11z m69 -41 c6 -10 -44 -80 -57 -80 -12 0 -10 48 2 71
11 20 45 26 55 9z"/>
<path d="M1513 2969 c-18 -12 -33 -25 -33 -29 0 -18 -34 -18 -70 0 -65 33 -99
22 -39 -13 33 -18 34 -29 14 -108 -5 -20 0 -32 26 -57 36 -36 62 -39 116 -17
43 18 75 19 91 3 17 -17 25 -3 13 21 -8 13 -9 49 -5 99 6 74 5 80 -17 100 -29
27 -55 28 -96 1z m67 -34 c8 -10 10 -32 6 -67 -3 -29 -6 -56 -6 -60 0 -3 -23
-14 -51 -23 -67 -23 -99 -11 -99 37 0 42 4 48 70 91 62 42 63 42 80 22z"/>
<path d="M76 2806 c-14 -19 -26 -39 -26 -44 0 -23 43 -101 80 -146 22 -26 40
-51 40 -53 0 -3 -10 -21 -21 -40 -20 -31 -20 -38 -9 -74 10 -29 10 -45 2 -63
-6 -14 -14 -59 -18 -100 l-7 -75 39 4 c94 10 114 17 114 37 0 11 5 28 11 39 9
18 5 26 -29 57 -22 20 -51 61 -66 90 -25 49 -26 54 -11 82 21 40 19 63 -6 86
-46 40 -79 97 -79 134 0 36 14 60 36 60 6 0 69 -58 140 -130 71 -71 135 -130
143 -130 7 0 -36 52 -98 115 -64 66 -111 123 -111 134 0 25 -36 51 -71 51 -19
0 -35 -10 -53 -34z m158 -521 c-7 -17 -47 -30 -63 -20 -14 8 -14 51 0 78 12
20 12 20 40 -11 17 -18 26 -38 23 -47z"/>
<path d="M125 2740 c-3 -6 24 -45 62 -87 37 -42 82 -92 100 -112 25 -29 34
-33 44 -24 10 10 1 24 -42 70 -30 32 -74 82 -98 111 -45 53 -55 60 -66 42z"/>
<path d="M2819 2554 c-40 -28 -319 -129 -385 -140 -34 -5 -50 -15 -87 -58 -36
-42 -56 -56 -99 -69 -29 -9 -78 -25 -108 -36 -85 -31 -144 -27 -227 14 -77 38
-111 78 -139 158 -19 57 -40 75 -30 26 19 -94 19 -107 -4 -119 -30 -16 -48 -6
-52 27 -3 27 -6 28 -60 31 l-57 3 -30 -63 c-36 -75 -166 -220 -244 -271 -81
-54 -168 -80 -253 -75 -89 4 -128 28 -189 119 -59 86 -89 114 -112 104 -74
-30 -133 -22 -188 27 -43 37 -47 78 -10 102 14 9 25 23 25 32 0 24 -49 114
-66 121 -22 8 -32 -7 -13 -20 8 -7 26 -31 39 -55 l24 -43 -32 -25 c-20 -16
-32 -34 -32 -50 0 -32 -23 -31 -62 1 -30 26 -45 29 -72 19 -23 -9 -20 -31 5
-45 18 -9 20 -18 16 -48 -5 -39 -62 -137 -85 -146 -21 -8 -54 13 -99 63 -29
33 -45 44 -52 36 -8 -7 -2 -23 20 -52 17 -24 37 -62 44 -87 8 -24 39 -81 71
-126 61 -87 69 -93 270 -212 120 -71 170 -118 179 -169 3 -18 7 -87 8 -153 2
-97 -1 -126 -15 -154 -21 -40 -21 -41 -8 -41 17 0 40 57 49 126 6 37 16 73 24
81 7 7 38 17 68 22 30 5 68 15 84 21 17 6 84 18 150 25 73 8 140 22 172 36 64
26 105 21 158 -21 53 -42 46 -45 117 50 23 30 47 49 72 58 35 11 44 10 81 -8
47 -23 139 -125 183 -202 38 -67 52 -63 52 15 0 73 18 142 49 186 33 46 130
105 249 151 173 68 265 116 312 162 41 41 80 95 80 111 0 12 -23 8 -41 -8 -13
-12 -29 -14 -68 -9 -28 4 -51 12 -52 18 0 6 0 45 1 86 1 59 5 79 21 96 30 32
24 48 -26 63 -25 7 -45 16 -46 20 0 3 -1 26 -2 51 l-2 45 65 32 c36 17 78 32
94 32 34 1 264 86 287 107 8 7 28 14 42 14 32 0 35 15 8 30 -27 14 -32 13 -72
-16z m-1154 -234 c30 -32 63 -38 95 -18 16 11 23 9 47 -14 46 -43 149 -89 213
-95 44 -3 74 2 131 22 41 14 81 27 90 29 9 3 39 16 68 30 51 26 51 26 51 5 0
-12 16 -36 35 -54 32 -29 35 -35 25 -59 -5 -15 -10 -60 -10 -101 0 -70 2 -75
31 -99 17 -14 39 -26 49 -26 36 0 30 -20 -17 -54 -54 -40 -70 -48 -198 -101
-279 -115 -348 -169 -384 -303 l-12 -42 -24 17 c-13 10 -33 35 -45 56 -12 20
-26 35 -31 32 -5 -4 -9 -1 -9 5 0 6 -21 24 -47 40 -79 50 -152 36 -219 -44
-43 -51 -54 -54 -92 -27 -42 29 -98 31 -175 5 -38 -13 -101 -26 -140 -29 -40
-3 -127 -20 -195 -36 -68 -17 -126 -28 -129 -25 -3 3 -8 34 -12 69 -6 60 -42
137 -63 137 -4 0 -20 12 -35 26 -15 14 -48 37 -73 50 -25 14 -65 38 -90 54
-25 16 -56 34 -68 40 -29 12 -129 114 -143 144 -6 11 -17 34 -25 49 -18 33
-17 35 17 39 14 2 37 13 52 25 30 24 87 125 87 155 0 18 4 19 42 13 24 -4 50
-16 59 -26 9 -11 20 -19 24 -19 5 0 17 -8 28 -17 15 -15 36 -18 104 -17 l85 2
46 -61 c88 -114 125 -143 202 -151 153 -18 283 37 417 175 92 94 120 129 145
179 28 56 53 61 93 20z"/>
<path d="M761 2544 c-14 -31 -15 -92 -2 -78 14 13 31 93 21 99 -4 2 -12 -7
-19 -21z"/>
<path d="M360 2486 c0 -14 29 -31 38 -21 6 6 -18 35 -29 35 -5 0 -9 -6 -9 -14z"/>
<path d="M2887 2453 c-9 -8 -196 -80 -277 -105 -81 -25 -86 -30 -70 -67 9 -24
9 -45 0 -100 -13 -79 -9 -100 22 -120 20 -12 24 -11 45 13 13 15 23 40 23 55
0 30 18 51 65 72 24 12 32 23 40 62 10 46 14 50 72 81 68 36 128 90 118 106
-7 11 -28 13 -38 3z m-183 -150 c-5 -29 -20 -51 -66 -94 -42 -40 -57 -60 -52
-72 3 -9 1 -17 -4 -17 -6 0 -9 15 -6 38 3 20 6 58 8 85 1 26 6 50 9 53 5 5 93
38 115 43 2 1 0 -16 -4 -36z"/>
<path d="M888 2433 c-23 -26 -48 -79 -48 -101 0 -29 32 -64 51 -57 30 11 67
116 54 155 -8 25 -37 26 -57 3z"/>
<path d="M1137 2402 c-10 -10 -17 -26 -17 -36 0 -21 59 -114 89 -140 21 -19
21 -19 46 4 41 38 35 90 -16 145 -45 49 -75 57 -102 27z m77 -63 c27 -31 33
-54 17 -63 -9 -6 -53 46 -64 77 -11 28 19 20 47 -14z"/>
<path d="M923 2115 c-3 -11 4 -26 20 -42 l25 -26 34 20 c19 11 33 27 33 39 0
16 -8 19 -53 22 -41 2 -54 0 -59 -13z"/>
<path d="M674 1139 c-13 -16 -34 -76 -34 -95 0 -30 17 -12 34 36 19 52 19 83
0 59z"/>
<path d="M614 835 c-26 -26 -102 -181 -134 -271 -28 -81 -33 -144 -16 -194 9
-25 16 -71 16 -104 0 -54 3 -61 34 -90 35 -32 158 -88 238 -107 41 -10 56 -8
115 11 120 38 132 54 88 125 -13 22 -25 49 -25 59 0 11 31 49 70 88 72 71 91
109 92 187 0 50 -10 68 -81 134 -66 61 -299 187 -346 187 -14 0 -37 -11 -51
-25z m186 -74 c116 -58 149 -80 209 -143 32 -34 41 -51 41 -78 0 -67 -18 -107
-73 -155 -28 -26 -58 -56 -66 -68 -18 -26 -16 -91 5 -122 22 -33 10 -62 -29
-70 -18 -4 -36 -10 -42 -13 -34 -21 -93 -9 -213 41 -84 35 -112 64 -112 116 0
20 -5 53 -11 74 -27 99 -16 164 55 319 14 31 26 61 26 66 0 5 13 27 29 50 37
51 46 50 181 -17z"/>
<path d="M1933 808 c-13 -6 -37 -34 -55 -62 -35 -56 -107 -136 -153 -169 -16
-12 -88 -45 -160 -73 -133 -53 -157 -73 -121 -100 22 -15 37 -68 30 -103 -8
-41 30 -79 132 -133 111 -58 174 -72 295 -66 104 5 165 28 195 73 15 24 15 28
-10 80 -41 82 -46 107 -56 280 -13 205 -19 253 -37 271 -17 16 -29 17 -60 2z
m41 -73 c3 -13 11 -104 16 -201 10 -162 13 -183 41 -250 44 -105 32 -121 -105
-145 -55 -9 -78 -8 -148 7 -72 15 -109 30 -199 80 -48 27 -67 55 -72 107 -3
29 -8 62 -12 74 -6 19 0 25 49 47 31 14 60 26 65 26 5 0 28 9 53 19 92 41 177
117 239 214 35 52 63 61 73 22z"/>
<path d="M1166 425 c-17 -13 -15 -35 5 -35 5 0 26 7 47 16 36 16 37 17 12 24
-36 11 -43 11 -64 -5z"/>
</g>
</svg>
